HIERARCHY
ROOT Hips
{
	OFFSET 0.000000 0.000000 0.000000 
	CHANNELS 6 Xposition Yposition Zposition Yrotation Zrotation Xrotation 
	JOINT Lumbar
	{
		OFFSET 0.000000 0.000000 0.000000 
		CHANNELS 3 Zrotation Xrotation Yrotation
		JOINT Neck
		{
			OFFSET 0.000000 0.445665 0.000000 
			CHANNELS 3 Zrotation Xrotation Yrotation
			End Site
			{
				OFFSET 0.000000 0.227535 0.000000 
			}
		}
		JOINT RightShoulder
		{
			OFFSET 0.019635 0.377685 0.194865 
			CHANNELS 3 Zrotation Xrotation Yrotation
			JOINT RightElbow
			{
				OFFSET 0.000000 -0.243375 0.000000 
				CHANNELS 2 Zrotation Yrotation
				JOINT RightWrist
				{
					OFFSET 0.000000 -0.264825 0.000000 
					CHANNELS 2 Zrotation Xrotation
					End Site
					{
						OFFSET 0.006600 -0.176220 0.000990 
					}
				}
			}
		}
		JOINT LeftShoulder
		{
			OFFSET 0.019635 0.377685 -0.194865 
			CHANNELS 3 Zrotation Xrotation Yrotation
			JOINT LeftElbow
			{
				OFFSET 0.000000 -0.243375 0.000000 
				CHANNELS 2 Zrotation Yrotation
				JOINT LeftWrist
				{
					OFFSET 0.000000 -0.264825 0.000000 
					CHANNELS 2 Zrotation Xrotation
					End Site
					{
						OFFSET 0.006600 -0.176220 -0.000990 
					}
				}
			}
		}
	}
	JOINT RightHip
	{
		OFFSET 0.052140 -0.069960 0.075570 
		CHANNELS 3 Zrotation Xrotation Yrotation
		JOINT RightKnee
		{
			OFFSET 0.000000 -0.402270 0.000000 
			CHANNELS 1 Zrotation
			JOINT RightAnkle
			{
				OFFSET 0.000000 -0.404085 0.000000 
				CHANNELS 3 Zrotation Xrotation Yrotation
				End Site
				{
					OFFSET 0.204105 -0.089430 0.008415 
				}
			}
		}
	}
	JOINT LeftHip
	{
		OFFSET 0.052140 -0.069960 -0.075570 
		CHANNELS 3 Zrotation Xrotation Yrotation
		JOINT LeftKnee
		{
			OFFSET 0.000000 -0.402270 0.000000 
			CHANNELS 1 Zrotation
			JOINT LeftAnkle
			{
				OFFSET 0.000000 -0.404085 0.000000 
				CHANNELS 3 Zrotation Xrotation Yrotation
				End Site
				{
					OFFSET 0.204105 -0.089430 -0.008415 
				}
			}
		}
	}
}
MOTION
Frames: 25
Frame Time: 0.02
-0.00013 -1e-05 0.00033 22.0961 -23.84343 -7.41103 41.92336 2.6371 -3.4141 -11.58424 -1.3938 -0.40668 88.69302 -95.47308 -90.00259 5.32875 58.42063 -12.93489 -0.20284 83.73691 101.44193 -64.16882 5.33116 -101.54675 10.92465 -1.38409 38.82602 -1.93113 -3.74775 -22.18308 -6.92839 -3.47561 -2.43263 42.34454 7.46891 1.81068 -27.65982 -6.59039 2.95578 2.16856
-0.00018 -1e-05 0.00041 22.13962 -23.8438 -7.42158 41.92515 2.64176 -3.39618 -11.59384 -1.37906 -0.40685 88.80009 -95.4737 -90.00259 5.32875 58.84276 -12.94643 -0.13057 83.78926 101.41353 -64.16882 5.33129 -101.52587 10.94273 -1.35291 38.82242 -1.93747 -3.84345 -22.1842 -6.92688 -3.46637 -2.43078 42.35762 7.46432 1.76536 -27.66024 -6.59304 2.96208 2.17207
-0.00023 -1e-05 0.00049 22.1831 -23.84407 -7.43208 41.9269 2.6464 -3.37833 -11.60348 -1.36435 -0.40702 88.90671 -95.47429 -90.00259 5.32875 59.26362 -12.958 -0.0585 83.84148 101.38518 -64.16882 5.33143 -101.50501 10.96083 -1.32179 38.81868 -1.94385 -3.93916 -22.18531 -6.92538 -3.45713 -2.42892 42.37054 7.45971 1.7201 -27.66066 -6.59567 2.96835 2.17557
-0.00027 -1e-05 0.00058 22.2265 -23.84442 -7.44259 41.92868 2.65105 -3.36047 -11.61306 -1.34966 -0.40719 89.01343 -95.47491 -90.00259 5.32875 59.68446 -12.96952 0.01355 83.89367 101.35686 -64.16882 5.33156 -101.48419 10.97886 -1.2907 38.81506 -1.95017 -4.03463 -22.18642 -6.92388 -3.44791 -2.42707 42.38356 7.45512 1.6749 -27.66108 -6.5983 2.97462 2.17907
-0.00032 -1e-05 0.00066 22.26991 -23.84491 -7.45314 41.93048 2.65572 -3.34252 -11.62258 -1.33496 -0.40736 89.12066 -95.47557 -90.00259 5.32875 60.10658 -12.98101 0.0858 83.94598 101.32852 -64.16883 5.33169 -101.46333 10.99685 -1.25956 38.81164 -1.95642 -4.12995 -22.18755 -6.92239 -3.4387 -2.42524 42.39678 7.45057 1.6297 -27.66151 -6.60095 2.98092 2.18258
-0.00037 -2e-05 0.00074 22.31355 -23.84476 -7.46356 41.93214 2.66029 -3.32487 -11.63248 -1.32021 -0.40753 89.22602 -95.47601 -90.00259 5.32875 60.52476 -12.99272 0.15747 83.99802 101.30015 -64.16883 5.33182 -101.44248 11.01516 -1.22849 38.80725 -1.96307 -4.22645 -22.18862 -6.92085 -3.42939 -2.42332 42.40908 7.44584 1.58434 -27.6619 -6.60356 2.98713 2.18605
-0.00042 -2e-05 0.00083 22.35667 -23.84586 -7.47423 41.93409 2.66506 -3.30665 -11.6416 -1.30559 -0.4077 89.33494 -95.47689 -90.00259 5.32875 60.95036 -13.00398 0.23023 84.05052 101.27185 -64.16883 5.33196 -101.42165 11.03282 -1.19731 38.80479 -1.96893 -4.32055 -22.18979 -6.9194 -3.42028 -2.42157 42.42319 7.44147 1.5393 -27.66237 -6.60624 2.99352 2.18961
-0.00047 -2e-05 0.00091 22.40026 -23.84584 -7.48467 41.93578 2.66965 -3.28895 -11.65142 -1.29084 -0.40787 89.44073 -95.47737 -90.00259 5.32875 61.36921 -13.01563 0.30199 84.10266 101.24351 -64.16883 5.33209 -101.4008 11.05106 -1.16626 38.8006 -1.97548 -4.41671 -22.19088 -6.91787 -3.41101 -2.41967 42.43568 7.43678 1.49405 -27.66276 -6.60885 2.99974 2.19308
-0.00051 -2e-05 0.00099 22.44451 -23.84432 -7.49482 41.93713 2.674 -3.2719 -11.66221 -1.27594 -0.40804 89.54212 -95.47735 -90.00259 5.32875 61.77964 -13.02787 0.37255 84.15413 101.21502 -64.16883 5.33222 -101.37992 11.07009 -1.13521 38.79407 -1.98301 -4.5161 -22.19184 -6.91623 -3.40147 -2.41756 42.44601 7.43164 1.44814 -27.66305 -6.61138 3.00578 2.19645
-0.00058 -2e-05 0.00108 22.48524 -23.85104 -7.50662 41.94034 2.67969 -3.25116 -11.66777 -1.26193 -0.4082 89.66711 -95.48017 -90.00259 5.32875 62.23802 -13.03708 0.4501 84.20874 101.18708 -64.16884 5.33237 -101.35919 11.08482 -1.10367 38.80032 -1.9853 -4.59906 -22.19346 -6.91521 -3.39325 -2.41659 42.46823 7.42889 1.40484 -27.66393 -6.61439 3.01292 2.20044
-0.00059 -2e-05 0.00114 22.53319 -23.84061 -7.51493 41.93969 2.68258 -3.23814 -11.68413 -1.24604 -0.40839 89.74342 -95.47704 -90.0026 5.32875 62.59551 -13.05243 0.51283 84.25719 101.15818 -64.16884 5.33247 -101.33817 11.10846 -1.0735 38.78006 -1.99841 -4.71528 -22.19375 -6.91291 -3.38238 -2.41327 42.4657 7.42126 1.3568 -27.66358 -6.61638 3.01769 2.20309
-0.00047 1e-05 0.00107 22.60299 -23.78051 -7.51358 41.92783 2.67736 -3.24705 -11.73224 -1.22491 -0.40868 89.67574 -95.45692 -90.00256 5.32875 62.67115 -13.08688 0.53504 84.28452 101.12502 -64.16884 5.33243 -101.31607 11.15808 -1.04437 38.6823 -2.04347 -4.93524 -22.18963 -6.90677 -3.36307 -2.4028 42.39159 7.39865 1.28933 -27.65955 -6.61552 3.01613 2.20216
-0.0003 4e-05 0.00096 22.67971 -23.70357 -7.50873 41.91212 2.6694 -3.26359 -11.79079 -1.20192 -0.40901 89.56117 -95.43095 -90.00255 5.32875 62.64631 -13.12708 0.54232 84.30633 101.09118 -64.16885 5.33235 -101.29376 11.21634 -1.01711 38.55867 -2.09897 -5.18631 -22.18427 -6.89942 -3.34132 -2.39009 42.2932 7.37144 1.21827 -27.65432 -6.61364 3.01214 2.19985
-0.00016 7e-05 0.00088 22.75192 -23.63615 -7.50553 41.89874 2.66297 -3.2761 -11.8432 -1.17984 -0.40932 89.47478 -95.40806 -90.00257 5.32875 62.67087 -13.16318 0.55641 84.33353 101.05869 -64.16885 5.33228 -101.2717 11.26965 -0.99082 38.45012 -2.14823 -5.41497 -22.17999 -6.89283 -3.32144 -2.37886 42.20848 7.3474 1.15307 -27.64985 -6.61224 3.00916 2.19808
1e-05 0.0001 0.00078 22.8298 -23.5612 -7.50207 41.88332 2.65536 -3.29088 -11.90155 -1.15745 -0.40965 89.35903 -95.38331 -90.00239 5.32875 62.67992 -13.20555 0.57053 84.34899 101.0218 -64.16885 5.33222 -101.24888 11.32733 -0.95697 38.32802 -2.20385 -5.67854 -22.17365 -6.88534 -3.29834 -2.36566 42.11304 7.31882 1.07007 -27.64455 -6.61073 3.00663 2.1967
0.00012 0.00012 0.00069 22.89766 -23.49745 -7.4983 41.87071 2.64952 -3.30287 -11.94997 -1.13531 -0.40995 89.29366 -95.36116 -90.00264 5.32875 62.69688 -13.23624 0.58082 84.38705 100.9939 -64.16886 5.33214 -101.22772 11.37792 -0.93914 38.22736 -2.24868 -5.87688 -22.17114 -6.87945 -3.28137 -2.35603 42.0336 7.29856 1.0232 -27.64059 -6.60923 3.00252 2.19416
8e-05 0.0001 0.00064 22.9346 -23.47333 -7.49466 41.8718 2.64948 -3.30421 -11.96873 -1.11402 -0.41014 89.37618 -95.34669 -90.00412 5.32871 62.76558 -13.23308 0.58625 84.49362 100.99125 -64.16886 5.332 -101.21026 11.40718 -0.96652 38.19828 -2.26108 -5.88628 -22.18092 -6.87828 -3.28184 -2.35677 42.00977 7.30271 1.07789 -27.64147 -6.60804 2.99506 2.189
-1e-05 7e-05 0.0006 22.9614 -23.46045 -7.4908 41.87517 2.65125 -3.30266 -11.97708 -1.09311 -0.41031 89.51149 -95.33522 -90.00602 5.32866 62.84472 -13.218 0.58796 84.62224 100.99763 -64.16887 5.33183 -101.1947 11.42895 -1.00967 38.19086 -2.26225 -5.82915 -22.19439 -6.87878 -3.28857 -2.36118 42.00216 7.31533 1.1688 -27.64361 -6.6069 2.98603 2.18271
-9e-05 4e-05 0.00056 22.99397 -23.43912 -7.48694 41.87391 2.65198 -3.3032 -11.98999 -1.07221 -0.4105 89.62449 -95.32302 -90.00768 5.32861 62.91569 -13.2085 0.59 84.73764 100.9997 -64.16889 5.33166 -101.17883 11.45392 -1.04464 38.1692 -2.2686 -5.80329 -22.20521 -6.87854 -3.29251 -2.36393 41.98318 7.3239 1.24263 -27.64455 -6.60571 2.97739 2.17679
-0.00015 1e-05 0.00051 23.02227 -23.4303 -7.48334 41.88668 2.65349 -3.30089 -12.004 -1.05046 -0.41067 89.72895 -95.308 -90.00957 5.32856 62.99776 -13.19848 0.59721 84.8663 101.0026 -64.16885 5.33154 -101.16045 11.48006 -1.08398 38.16395 -2.27502 -5.77422 -22.21992 -6.87815 -3.29617 -2.36657 41.97905 7.33323 1.31935 -27.64794 -6.6046 2.96994 2.17138
-0.00024 -2e-05 0.00047 23.05649 -23.39957 -7.47925 41.87209 2.65392 -3.30353 -12.0131 -1.03063 -0.41086 89.86408 -95.29955 -90.01106 5.32852 63.0603 -13.18665 0.59301 84.97272 101.00592 -64.16892 5.33132 -101.14795 11.50184 -1.1179 38.13158 -2.27845 -5.73551 -22.22764 -6.87849 -3.30191 -2.37033 41.94965 7.34297 1.39823 -27.64674 -6.60337 2.95978 2.16472
-0.00039 -4e-05 0.00047 23.11366 -23.29472 -7.47323 41.77031 2.65033 -3.32231 -12.01127 -1.01554 -0.41113 90.07375 -95.30917 -90.01133 5.32852 63.06858 -13.17273 0.55793 85.01193 101.0083 -64.16931 5.33083 -101.14968 11.51359 -1.13345 38.00547 -2.27676 -5.68779 -22.2132 -6.88039 -3.31206 -2.37636 41.83368 7.35244 1.47855 -27.63083 -6.60171 2.94158 2.1543
-0.00056 -6e-05 0.00048 23.17636 -23.16942 -7.46683 41.64285 2.64572 -3.34584 -12.00478 -1.00246 -0.41143 90.31223 -95.32518 -90.01117 5.32852 63.05701 -13.15736 0.51165 85.02816 101.01077 -64.1698 5.33026 -101.15755 11.52116 -1.14295 37.85386 -2.27239 -5.63248 -22.19194 -6.88295 -3.32405 -2.38336 41.69409 7.36197 1.55927 -27.61056 -6.59995 2.92087 2.14275
-0.00072 -8e-05 0.00048 23.23375 -23.06085 -7.46106 41.53469 2.64202 -3.36601 -12.00035 -0.98874 -0.41172 90.53591 -95.33789 -90.01122 5.32852 63.0535 -13.14265 0.47073 85.05509 101.01311 -64.17022 5.32975 -101.16368 11.53048 -1.15487 37.72314 -2.26884 -5.5793 -22.1751 -6.88523 -3.33513 -2.38991 41.57402 7.371 1.63663 -27.59346 -6.59832 2.90199 2.13214
-0.00088 -0.00011 0.00049 23.30248 -22.9218 -7.45344 41.39511 2.63656 -3.39109 -11.9959 -0.97386 -0.41199 90.76845 -95.35247 -90.01124 5.32852 63.05405 -13.12754 0.42843 85.0814 101.01612 -64.17076 5.32912 -101.16553 11.54012 -1.16861 37.55445 -2.26627 -5.52844 -22.1529 -6.88752 -3.34686 -2.39674 41.41797 7.38213 1.72754 -27.57149 -6.59636 2.8803 2.11976
